# xmcd
#
# Track frame offsets: 
#        150
#        56620
#        84019
#        116899
#        148535
#        178577
#        227350
#        260054
#        290492
#
# Disc length: 4473 seconds
#
# Revision: 2
# Processed by: cddbd v1.5.2PL0 Copyright (c) Steve Scherf et al.
# Submitted via: ExactAudioCopy v1.3
#
DISCID=79117709
DTITLE=David Gilmour - Live At Pompeii - CD Two
DYEAR=2017
DGENRE=Rock
TTITLE0=Shine On You Crazy Diamond (Parts 1-5)
TTITLE1=Fat Old Sun
TTITLE2=Coming Back To Life
TTITLE3=On An Island
TTITLE4=Today
TTITLE5=Sorrow
TTITLE6=Run Like Hell
TTITLE7=Time - Breathe (In The Air) (Reprise)
TTITLE8=Comfortably Numb
EXTD=
EXTT0=
EXTT1=
EXTT2=
EXTT3=
EXTT4=
EXTT5=
EXTT6=
EXTT7=
EXTT8=
PLAYORDER=
